<svg id="visual" viewBox="0 0 960 540" width="960" height="540" xmlns="http://www.w3.org/2000/svg" xmlns:xlink="http://www.w3.org/1999/xlink" version="1.1"><rect x="0" y="0" width="960" height="540" fill="#001220"></rect><path d="M0 281L22.8 265.7C45.7 250.3 91.3 219.7 137 212.2C182.7 204.7 228.3 220.3 274 234.5C319.7 248.7 365.3 261.3 411.2 260.7C457 260 503 246 548.8 247.3C594.7 248.7 640.3 265.3 686 264.3C731.7 263.3 777.3 244.7 823 236.2C868.7 227.7 914.3 229.3 937.2 230.2L960 231L960 541L937.2 541C914.3 541 868.7 541 823 541C777.3 541 731.7 541 686 541C640.3 541 594.7 541 548.8 541C503 541 457 541 411.2 541C365.3 541 319.7 541 274 541C228.3 541 182.7 541 137 541C91.3 541 45.7 541 22.8 541L0 541Z" fill="#2a4091"></path><path d="M0 329L22.8 332.7C45.7 336.3 91.3 343.7 137 341.2C182.7 338.7 228.3 326.3 274 316.7C319.7 307 365.3 300 411.2 299.8C457 299.7 503 306.3 548.8 299.3C594.7 292.3 640.3 271.7 686 279.5C731.7 287.3 777.3 323.7 823 338.3C868.7 353 914.3 346 937.2 342.5L960 339L960 541L937.2 541C914.3 541 868.7 541 823 541C777.3 541 731.7 541 686 541C640.3 541 594.7 541 548.8 541C503 541 457 541 411.2 541C365.3 541 319.7 541 274 541C228.3 541 182.7 541 137 541C91.3 541 45.7 541 22.8 541L0 541Z" fill="#603d91"></path><path d="M0 410L22.8 404.5C45.7 399 91.3 388 137 387.3C182.7 386.7 228.3 396.3 274 400.3C319.7 404.3 365.3 402.7 411.2 401.8C457 401 503 401 548.8 395.8C594.7 390.7 640.3 380.3 686 367.3C731.7 354.3 777.3 338.7 823 337.7C868.7 336.7 914.3 350.3 937.2 357.2L960 364L960 541L937.2 541C914.3 541 868.7 541 823 541C777.3 541 731.7 541 686 541C640.3 541 594.7 541 548.8 541C503 541 457 541 411.2 541C365.3 541 319.7 541 274 541C228.3 541 182.7 541 137 541C91.3 541 45.7 541 22.8 541L0 541Z" fill="#87378a"></path><path d="M0 432L22.8 422.8C45.7 413.7 91.3 395.3 137 394.7C182.7 394 228.3 411 274 410.2C319.7 409.3 365.3 390.7 411.2 395.3C457 400 503 428 548.8 431.7C594.7 435.3 640.3 414.7 686 410C731.7 405.3 777.3 416.7 823 419.5C868.7 422.3 914.3 416.7 937.2 413.8L960 411L960 541L937.2 541C914.3 541 868.7 541 823 541C777.3 541 731.7 541 686 541C640.3 541 594.7 541 548.8 541C503 541 457 541 411.2 541C365.3 541 319.7 541 274 541C228.3 541 182.7 541 137 541C91.3 541 45.7 541 22.8 541L0 541Z" fill="#a6337e"></path><path d="M0 471L22.8 464.8C45.7 458.7 91.3 446.3 137 441.3C182.7 436.3 228.3 438.7 274 438.7C319.7 438.7 365.3 436.3 411.2 443.7C457 451 503 468 548.8 477.7C594.7 487.3 640.3 489.7 686 491.7C731.7 493.7 777.3 495.3 823 494.2C868.7 493 914.3 489 937.2 487L960 485L960 541L937.2 541C914.3 541 868.7 541 823 541C777.3 541 731.7 541 686 541C640.3 541 594.7 541 548.8 541C503 541 457 541 411.2 541C365.3 541 319.7 541 274 541C228.3 541 182.7 541 137 541C91.3 541 45.7 541 22.8 541L0 541Z" fill="#be346d"></path></svg>