<svg id="visual" viewBox="0 0 960 540" width="960" height="540" xmlns="http://www.w3.org/2000/svg" xmlns:xlink="http://www.w3.org/1999/xlink" version="1.1"><rect x="0" y="0" width="960" height="540" fill="#001220"></rect><path d="M0 257L22.8 272.3C45.7 287.7 91.3 318.3 137 325.8C182.7 333.3 228.3 317.7 274 303.5C319.7 289.3 365.3 276.7 411.2 277.3C457 278 503 292 548.8 290.7C594.7 289.3 640.3 272.7 686 273.7C731.7 274.7 777.3 293.3 823 301.8C868.7 310.3 914.3 308.7 937.2 307.8L960 307L960 0L937.2 0C914.3 0 868.7 0 823 0C777.3 0 731.7 0 686 0C640.3 0 594.7 0 548.8 0C503 0 457 0 411.2 0C365.3 0 319.7 0 274 0C228.3 0 182.7 0 137 0C91.3 0 45.7 0 22.8 0L0 0Z" fill="#2a4091"></path><path d="M0 209L22.8 205.3C45.7 201.7 91.3 194.3 137 196.8C182.7 199.3 228.3 211.7 274 221.3C319.7 231 365.3 238 411.2 238.2C457 238.3 503 231.7 548.8 238.7C594.7 245.7 640.3 266.3 686 258.5C731.7 250.7 777.3 214.3 823 199.7C868.7 185 914.3 192 937.2 195.5L960 199L960 0L937.2 0C914.3 0 868.7 0 823 0C777.3 0 731.7 0 686 0C640.3 0 594.7 0 548.8 0C503 0 457 0 411.2 0C365.3 0 319.7 0 274 0C228.3 0 182.7 0 137 0C91.3 0 45.7 0 22.8 0L0 0Z" fill="#603d91"></path><path d="M0 128L22.8 133.5C45.7 139 91.3 150 137 150.7C182.7 151.3 228.3 141.7 274 137.7C319.7 133.7 365.3 135.3 411.2 136.2C457 137 503 137 548.8 142.2C594.7 147.3 640.3 157.7 686 170.7C731.7 183.7 777.3 199.3 823 200.3C868.7 201.3 914.3 187.7 937.2 180.8L960 174L960 0L937.2 0C914.3 0 868.7 0 823 0C777.3 0 731.7 0 686 0C640.3 0 594.7 0 548.8 0C503 0 457 0 411.2 0C365.3 0 319.7 0 274 0C228.3 0 182.7 0 137 0C91.3 0 45.7 0 22.8 0L0 0Z" fill="#87378a"></path><path d="M0 106L22.8 115.2C45.7 124.3 91.3 142.7 137 143.3C182.7 144 228.3 127 274 127.8C319.7 128.7 365.3 147.3 411.2 142.7C457 138 503 110 548.8 106.3C594.7 102.7 640.3 123.3 686 128C731.7 132.7 777.3 121.3 823 118.5C868.7 115.7 914.3 121.3 937.2 124.2L960 127L960 0L937.2 0C914.3 0 868.7 0 823 0C777.3 0 731.7 0 686 0C640.3 0 594.7 0 548.8 0C503 0 457 0 411.2 0C365.3 0 319.7 0 274 0C228.3 0 182.7 0 137 0C91.3 0 45.7 0 22.8 0L0 0Z" fill="#a6337e"></path><path d="M0 67L22.8 73.2C45.7 79.3 91.3 91.7 137 96.7C182.7 101.7 228.3 99.3 274 99.3C319.7 99.3 365.3 101.7 411.2 94.3C457 87 503 70 548.8 60.3C594.7 50.7 640.3 48.3 686 46.3C731.7 44.3 777.3 42.7 823 43.8C868.7 45 914.3 49 937.2 51L960 53L960 0L937.2 0C914.3 0 868.7 0 823 0C777.3 0 731.7 0 686 0C640.3 0 594.7 0 548.8 0C503 0 457 0 411.2 0C365.3 0 319.7 0 274 0C228.3 0 182.7 0 137 0C91.3 0 45.7 0 22.8 0L0 0Z" fill="#be346d"></path></svg>